# 3ds Max Wavefront OBJ Exporter v0.99 - (c)2007 guruware
# File Created: 07.05.2025 19:26:56

mtllib artemNormal_hoja.mtl

#
# object polySurface5_polySurface006
#

v  -0.6348 0.2486 -0.5618
v  -0.6491 0.2450 0.5495
v  -0.5460 0.2207 0.5502
v  -0.5317 0.2242 -0.5610
v  -0.0253 0.0393 -0.5572
v  -0.0396 0.0357 0.5541
v  -0.0118 0.0090 0.5542
v  0.0025 0.0125 -0.5570
v  -0.1236 0.0921 -0.5579
v  -0.1379 0.0886 0.5534
v  -0.2219 0.1346 -0.5586
v  -0.2362 0.1311 0.5526
v  -0.3225 0.1730 -0.5593
v  -0.3368 0.1695 0.5519
v  -0.4273 0.2009 -0.5601
v  -0.4416 0.1974 0.5511
# 16 vertices

vn 0.2296 0.9732 0.0060
vn 0.2238 0.9746 0.0059
vn 0.5338 0.8455 0.0097
vn 0.5339 0.8456 0.0096
vn 0.6926 0.7212 0.0112
vn 0.4364 0.8997 0.0085
vn 0.4365 0.8997 0.0085
vn 0.3765 0.9264 0.0078
vn 0.3073 0.9516 0.0069
vn 0.3071 0.9516 0.0069
vn 0.2378 0.9713 0.0061
vn 0.2382 0.9712 0.0061
# 12 vertex normals

vt 0.0301 0.9833 0.0000
vt 0.0301 0.0127 0.0000
vt 0.1479 0.0127 0.0000
vt 0.1479 0.9833 0.0000
vt 0.7367 0.9833 0.0000
vt 0.7367 0.0127 0.0000
vt 0.9723 0.0127 0.0000
vt 0.9723 0.9833 0.0000
vt 0.6190 0.9833 0.0000
vt 0.6190 0.0127 0.0000
vt 0.5012 0.9833 0.0000
vt 0.5012 0.0127 0.0000
vt 0.3834 0.9833 0.0000
vt 0.3834 0.0127 0.0000
vt 0.2657 0.9833 0.0000
vt 0.2657 0.0127 0.0000
# 16 texture coords

o polySurface5_polySurface006
g polySurface5_polySurface006
usemtl surfaceShader5_001
s 1
f 1/1/1 2/2/1 3/3/2 
f 3/3/2 4/4/2 1/1/1 
f 5/5/3 6/6/4 7/7/5 
f 7/7/5 8/8/5 5/5/3 
f 9/9/6 10/10/7 6/6/4 
f 6/6/4 5/5/3 9/9/6 
f 11/11/8 12/12/8 10/10/7 
f 10/10/7 9/9/6 11/11/8 
f 13/13/9 14/14/10 12/12/8 
f 12/12/8 11/11/8 13/13/9 
f 15/15/11 16/16/12 14/14/10 
f 14/14/10 13/13/9 15/15/11 
f 4/4/2 3/3/2 16/16/12 
f 16/16/12 15/15/11 4/4/2 
# 14 faces

