# 3ds Max Wavefront OBJ Exporter v0.99 - (c)2007 guruware
# File Created: 19.04.2025 01:28:57

mtllib standMadera_Carrucel.mtl

#
# object Box004
#

v  -2.0516 3.3727 0.2073
v  -2.0516 0.1003 -1.1181
v  1.9944 0.1003 -1.1181
v  1.9944 3.3727 0.2073
v  -2.0516 3.4283 0.0049
v  1.9944 3.4283 0.0049
v  1.9944 0.1559 -1.3205
v  -2.0516 0.1559 -1.3205
# 8 vertices

vn 0.0000 -0.2649 0.9643
vn 0.0000 0.2649 -0.9643
vn 0.0000 0.9269 0.3754
vn 1.0000 0.0000 -0.0000
vn 0.0000 -0.9269 -0.3754
vn -1.0000 0.0000 -0.0000
# 6 vertex normals

vt 1.0000 0.0000 0.0000
vt 1.0000 1.0000 0.0000
vt 0.0000 1.0000 0.0000
vt 0.0000 0.0000 0.0000
# 4 texture coords

o Box004
g Box004
usemtl 01___Default
s 2
f 1/1/1 2/2/1 3/3/1 
f 3/3/1 4/4/1 1/1/1 
s 4
f 5/4/2 6/1/2 7/2/2 
f 7/2/2 8/3/2 5/4/2 
s 8
f 1/4/3 4/1/3 6/2/3 
f 6/2/3 5/3/3 1/4/3 
s 16
f 4/4/4 3/1/4 7/2/4 
f 7/2/4 6/3/4 4/4/4 
s 32
f 3/4/5 2/1/5 8/2/5 
f 8/2/5 7/3/5 3/4/5 
s 64
f 2/4/6 1/1/6 5/2/6 
f 5/2/6 8/3/6 2/4/6 
# 12 faces

#
# object Box005
#

v  -1.7923 0.6744 1.1720
v  -1.7923 2.9850 0.2584
v  1.7960 2.9850 0.2584
v  1.7960 0.6744 1.1720
v  -1.7923 0.7052 1.2975
v  1.7960 0.7052 1.2975
v  1.7960 3.0159 0.3839
v  -1.7923 3.0159 0.3839
# 8 vertices

vn 0.0000 -0.2385 -0.9712
vn 0.0000 0.2385 0.9712
vn 0.0000 -0.9300 0.3677
vn 1.0000 0.0000 -0.0000
vn 0.0000 0.9300 -0.3677
vn -1.0000 0.0000 -0.0000
# 6 vertex normals

vt 0.6929 0.0145 0.0000
vt 0.6929 0.9903 0.0000
vt 0.2229 0.9903 0.0000
vt 0.2229 0.0145 0.0000
vt 0.0435 0.0242 0.0000
vt 0.9701 0.0242 0.0000
vt 0.9701 0.9903 0.0000
vt 0.0435 0.9903 0.0000
# 8 texture coords

o Box005
g Box005
usemtl 02___Default
s 2
f 9/5/7 10/6/7 11/7/7 
f 11/7/7 12/8/7 9/5/7 
s 4
f 13/9/8 14/10/8 15/11/8 
f 15/11/8 16/12/8 13/9/8 
s 8
f 9/8/9 12/5/9 14/6/9 
f 14/6/9 13/7/9 9/8/9 
s 16
f 12/8/10 11/5/10 15/6/10 
f 15/6/10 14/7/10 12/8/10 
s 32
f 11/8/11 10/5/11 16/6/11 
f 16/6/11 15/7/11 11/8/11 
s 64
f 10/8/12 9/5/12 13/6/12 
f 13/6/12 16/7/12 10/8/12 
# 12 faces

#
# object letrero001
#

v  -2.0516 3.4254 0.2177
v  -2.0516 0.1417 1.5008
v  1.9944 0.1417 1.5008
v  1.9944 3.4254 0.2177
v  -2.0516 3.3716 0.0147
v  1.9944 3.3716 0.0147
v  1.9944 0.0879 1.2978
v  -2.0516 0.0879 1.2978
# 8 vertices

vn 0.0000 0.2562 0.9666
vn 0.0000 -0.2562 -0.9666
vn 0.0000 0.9314 -0.3640
vn 1.0000 0.0000 -0.0000
vn 0.0000 -0.9314 0.3640
vn -1.0000 0.0000 -0.0000
# 6 vertex normals

vt 1.0000 0.0000 0.0000
vt 1.0000 1.0000 0.0000
vt 0.0000 1.0000 0.0000
vt 0.0000 0.0000 0.0000
# 4 texture coords

o letrero001
g letrero001
usemtl 01___Default
s 2
f 17/13/13 18/14/13 19/15/13 
f 19/15/13 20/16/13 17/13/13 
s 4
f 21/16/14 22/13/14 23/14/14 
f 23/14/14 24/15/14 21/16/14 
s 8
f 17/16/15 20/13/15 22/14/15 
f 22/14/15 21/15/15 17/16/15 
s 16
f 20/16/16 19/13/16 23/14/16 
f 23/14/16 22/15/16 20/16/16 
s 32
f 19/16/17 18/13/17 24/14/17 
f 24/14/17 23/15/17 19/16/17 
s 64
f 18/16/18 17/13/18 21/14/18 
f 21/14/18 24/15/18 18/16/18 
# 12 faces

