# 3ds Max Wavefront OBJ Exporter v0.99 - (c)2007 guruware
# File Created: 21.04.2025 07:33:48

mtllib RendijaBoliche.mtl

#
# object Rendija
#

v  -9.9645 3.1600 -17.4308
v  -2.5919 3.1600 -17.4308
v  -2.5919 3.5993 -17.4308
v  -9.9645 3.5993 -17.4308
v  -9.9645 4.5339 -17.4308
v  -2.5919 4.5339 -17.4308
v  -2.5919 4.9732 -17.4308
v  -9.9645 4.9732 -17.4308
v  -9.9645 4.0759 -17.4308
v  -2.5919 4.0759 -17.4308
v  -2.5919 4.5152 -17.4308
v  -9.9645 4.5152 -17.4308
v  -9.9645 3.6180 -17.4308
v  -2.5919 3.6180 -17.4308
v  -2.5919 4.0573 -17.4308
v  -9.9645 4.0573 -17.4308
v  -2.5919 1.7675 -17.4308
v  -9.9645 1.7675 -17.4308
v  -9.9645 1.3189 -17.4308
v  -2.5919 1.3189 -17.4308
v  -2.5919 2.2255 -17.4308
v  -9.9645 2.2255 -17.4308
v  -9.9645 1.7862 -17.4308
v  -2.5919 1.7862 -17.4308
v  -2.5919 2.6834 -17.4308
v  -9.9645 2.6834 -17.4308
v  -9.9645 2.2441 -17.4308
v  -2.5919 2.2441 -17.4308
v  -2.5919 3.1414 -17.4308
v  -9.9645 3.1414 -17.4308
v  -9.9645 2.7021 -17.4308
v  -2.5919 2.7021 -17.4308
# 32 vertices

vn 0.0000 0.0000 1.0000
# 1 vertex normals

vt 0.0000 0.4020 0.0000
vt 1.0000 0.4020 0.0000
vt 1.0000 0.4980 0.0000
vt 0.0000 0.4980 0.0000
vt 0.0000 0.7020 0.0000
vt 1.0000 0.7020 0.0000
vt 1.0000 0.7980 0.0000
vt 0.0000 0.7980 0.0000
vt 0.0000 0.6020 0.0000
vt 1.0000 0.6020 0.0000
vt 1.0000 0.6980 0.0000
vt 0.0000 0.6980 0.0000
vt 0.0000 0.5020 0.0000
vt 1.0000 0.5020 0.0000
vt 1.0000 0.5980 0.0000
vt 0.0000 0.5980 0.0000
vt 1.0000 0.0980 0.0000
vt 0.0000 0.0980 0.0000
vt 0.0000 0.0000 0.0000
vt 1.0000 0.0000 0.0000
vt 1.0000 0.1980 0.0000
vt 0.0000 0.1980 0.0000
vt 0.0000 0.1020 0.0000
vt 1.0000 0.1020 0.0000
vt 1.0000 0.2980 0.0000
vt 0.0000 0.2980 0.0000
vt 0.0000 0.2020 0.0000
vt 1.0000 0.2020 0.0000
vt 1.0000 0.3980 0.0000
vt 0.0000 0.3980 0.0000
vt 0.0000 0.3020 0.0000
vt 1.0000 0.3020 0.0000
# 32 texture coords

o Rendija
g Rendija
usemtl 08___Default
s off
f 1/1/1 2/2/1 3/3/1 
f 3/3/1 4/4/1 1/1/1 
f 5/5/1 6/6/1 7/7/1 
f 7/7/1 8/8/1 5/5/1 
f 9/9/1 10/10/1 11/11/1 
f 11/11/1 12/12/1 9/9/1 
f 13/13/1 14/14/1 15/15/1 
f 15/15/1 16/16/1 13/13/1 
f 17/17/1 18/18/1 19/19/1 
f 19/19/1 20/20/1 17/17/1 
f 21/21/1 22/22/1 23/23/1 
f 23/23/1 24/24/1 21/21/1 
f 25/25/1 26/26/1 27/27/1 
f 27/27/1 28/28/1 25/25/1 
f 29/29/1 30/30/1 31/31/1 
f 31/31/1 32/32/1 29/29/1 
# 16 faces

