# 3ds Max Wavefront OBJ Exporter v0.99 - (c)2007 guruware
# File Created: 06.05.2025 23:06:58

mtllib Dados1.mtl

#
# object Box004
#

v  -0.0125 0.0000 0.0970
v  -0.0970 0.0000 -0.0125
v  0.0125 0.0000 -0.0970
v  0.0970 0.0000 0.0125
v  -0.0125 0.1383 0.0970
v  0.0970 0.1383 0.0125
v  0.0125 0.1383 -0.0970
v  -0.0970 0.1383 -0.0125
# 8 vertices

vn -0.1041 -0.5774 0.8098
vn -0.8098 -0.5774 -0.1041
vn 0.1041 -0.5774 -0.8098
vn 0.8098 -0.5774 0.1041
vn -0.1041 0.5774 0.8098
vn 0.8098 0.5774 0.1041
vn 0.1041 0.5774 -0.8098
vn -0.8098 0.5774 -0.1041
# 8 vertex normals

vt 0.8707 0.6188 0.0000
vt 0.6895 0.6165 0.0000
vt 0.6913 0.3818 0.0000
vt 0.8725 0.3841 0.0000
vt 0.3171 0.3816 0.0000
vt 0.4956 0.3816 0.0000
vt 0.4956 0.6189 0.0000
vt 0.3171 0.6189 0.0000
vt 0.5048 0.3810 0.0000
vt 0.6830 0.3810 0.0000
vt 0.6830 0.6188 0.0000
vt 0.5048 0.6188 0.0000
vt 0.3162 0.6314 0.0000
vt 0.4969 0.6314 0.0000
vt 0.4969 0.8716 0.0000
vt 0.3162 0.8716 0.0000
vt 0.3069 0.3795 0.0000
vt 0.3070 0.6204 0.0000
vt 0.1292 0.6204 0.0000
vt 0.1292 0.3795 0.0000
vt 0.3167 0.1310 0.0000
vt 0.4961 0.1310 0.0000
vt 0.4961 0.3689 0.0000
vt 0.3167 0.3689 0.0000
# 24 texture coords

o Box004
g Box004
usemtl 08___Default
s 2
f 1/1/1 2/2/2 3/3/3 4/4/4 
s 4
f 5/5/5 6/6/6 7/7/7 8/8/8 
s 8
f 1/9/1 4/10/4 6/11/6 5/12/5 
s 16
f 4/13/4 3/14/3 7/15/7 6/16/6 
s 32
f 3/17/3 2/18/2 8/19/8 7/20/7 
s 64
f 2/21/2 1/22/1 5/23/5 8/24/8 
# 6 polygons

