# 3ds Max Wavefront OBJ Exporter v0.99 - (c)2007 guruware
# File Created: 20.04.2025 05:26:30

mtllib dardo.mtl

#
# object Plane_001
#

v  0.2933 6.9962 16.1610
v  0.4055 6.9962 16.2453
v  0.4055 6.9962 16.0224
v  0.2933 6.9962 15.9381
v  0.1826 6.9962 16.2453
v  0.1826 6.9962 16.0224
v  0.2940 7.0165 15.4441
v  0.2940 7.0165 15.7653
v  0.2980 7.0161 15.7653
v  0.2980 7.0161 15.4441
v  0.3018 7.0149 15.7653
v  0.3018 7.0149 15.4441
v  0.3053 7.0130 15.7653
v  0.3053 7.0130 15.4441
v  0.3084 7.0105 15.7653
v  0.3084 7.0105 15.4441
v  0.3109 7.0074 15.7653
v  0.3109 7.0074 15.4441
v  0.3128 7.0039 15.7653
v  0.3128 7.0039 15.4441
v  0.3139 7.0001 15.7653
v  0.3139 7.0001 15.4441
v  0.3143 6.9962 15.7653
v  0.3143 6.9962 15.4441
v  0.3139 6.9922 15.7653
v  0.3139 6.9922 15.4441
v  0.3128 6.9884 15.7653
v  0.3128 6.9884 15.4441
v  0.3109 6.9849 15.7653
v  0.3109 6.9849 15.4441
v  0.3084 6.9818 15.7653
v  0.3084 6.9818 15.4441
v  0.3053 6.9793 15.7653
v  0.3053 6.9793 15.4441
v  0.3018 6.9774 15.7653
v  0.3018 6.9774 15.4441
v  0.2980 6.9763 15.7653
v  0.2980 6.9763 15.4441
v  0.2940 6.9759 15.7653
v  0.2940 6.9759 15.4441
v  0.2901 6.9763 15.7653
v  0.2901 6.9763 15.4441
v  0.2863 6.9774 15.7653
v  0.2863 6.9774 15.4441
v  0.2828 6.9793 15.7653
v  0.2828 6.9793 15.4441
v  0.2797 6.9818 15.7653
v  0.2797 6.9818 15.4441
v  0.2772 6.9849 15.7653
v  0.2772 6.9849 15.4441
v  0.2753 6.9884 15.7653
v  0.2753 6.9884 15.4441
v  0.2741 6.9922 15.7653
v  0.2741 6.9922 15.4441
v  0.2738 6.9962 15.7653
v  0.2738 6.9962 15.4441
v  0.2741 7.0001 15.7653
v  0.2741 7.0001 15.4441
v  0.2753 7.0039 15.7653
v  0.2753 7.0039 15.4441
v  0.2772 7.0074 15.7653
v  0.2772 7.0074 15.4441
v  0.2797 7.0105 15.7653
v  0.2797 7.0105 15.4441
v  0.2828 7.0130 15.7653
v  0.2828 7.0130 15.4441
v  0.2863 7.0149 15.7653
v  0.2863 7.0149 15.4441
v  0.2818 7.0012 15.8278
v  0.2830 7.0035 15.8278
v  0.2901 7.0161 15.7653
v  0.2901 7.0161 15.4441
v  0.2994 6.9997 15.4040
v  0.2986 7.0007 15.4040
v  0.2994 6.9926 15.4040
v  0.2986 6.9916 15.4040
v  0.2941 6.9962 15.2624
v  0.2965 6.9902 15.4040
v  0.2976 6.9908 15.4040
v  0.2877 6.9949 15.4040
v  0.2881 6.9937 15.4040
v  0.2953 7.0025 15.4040
v  0.2940 7.0026 15.4040
v  0.2928 7.0025 15.4040
v  0.3000 6.9937 15.4040
v  0.3003 6.9949 15.4040
v  0.2905 6.9908 15.4040
v  0.2916 6.9902 15.4040
v  0.2895 7.0007 15.4040
v  0.2887 6.9997 15.4040
v  0.3000 6.9986 15.4040
v  0.2953 6.9899 15.4040
v  0.2876 6.9962 15.4040
v  0.2965 7.0021 15.4040
v  0.2895 6.9916 15.4040
v  0.2905 7.0015 15.4040
v  0.3003 6.9974 15.4040
v  0.2940 6.9897 15.4040
v  0.2877 6.9974 15.4040
v  0.2976 7.0015 15.4040
v  0.2887 6.9926 15.4040
v  0.2916 7.0021 15.4040
v  0.3005 6.9962 15.4040
v  0.2928 6.9899 15.4040
v  0.2881 6.9986 15.4040
v  0.2940 6.9962 15.2624
v  0.2941 6.9961 15.2624
v  0.2940 6.9961 15.2624
v  0.2890 6.9839 15.8278
v  0.2915 6.9832 15.8278
v  0.2927 6.9893 16.0318
v  0.2914 6.9897 16.0318
v  0.3034 7.0055 15.8278
v  0.3051 7.0035 15.8278
v  0.3014 6.9852 15.8278
v  0.2991 6.9839 15.8278
v  0.2818 6.9911 15.8278
v  0.2810 6.9936 15.8278
v  0.2940 7.0094 15.8278
v  0.2966 7.0092 15.8278
v  0.2915 7.0092 15.8278
v  0.3070 6.9936 15.8278
v  0.3063 6.9911 15.8278
v  0.2867 6.9852 15.8278
v  0.2847 7.0055 15.8278
v  0.3063 7.0012 15.8278
v  0.2966 6.9832 15.8278
v  0.2808 6.9962 15.8278
v  0.2991 7.0084 15.8278
v  0.3051 6.9888 15.8278
v  0.2847 6.9868 15.8278
v  0.2867 7.0072 15.8278
v  0.3070 6.9988 15.8278
v  0.2940 6.9829 15.8278
v  0.2810 6.9988 15.8278
v  0.3014 7.0072 15.8278
v  0.3034 6.9868 15.8278
v  0.2830 6.9888 15.8278
v  0.2890 7.0084 15.8278
v  0.3073 6.9962 15.8278
v  0.2954 7.0030 16.0318
v  0.2940 7.0032 16.0318
v  0.2927 7.0030 16.0318
v  0.2914 7.0026 16.0318
v  0.2901 7.0020 16.0318
v  0.2891 7.0011 16.0318
v  0.2882 7.0001 16.0318
v  0.2876 6.9989 16.0318
v  0.2872 6.9975 16.0318
v  0.2870 6.9962 16.0318
v  0.2872 6.9948 16.0318
v  0.2876 6.9935 16.0318
v  0.2882 6.9923 16.0318
v  0.2891 6.9912 16.0318
v  0.2901 6.9904 16.0318
v  0.2940 6.9892 16.0318
v  0.2954 6.9893 16.0318
v  0.2967 6.9897 16.0318
v  0.2979 6.9904 16.0318
v  0.2990 6.9912 16.0318
v  0.2999 6.9923 16.0318
v  0.3005 6.9935 16.0318
v  0.3009 6.9948 16.0318
v  0.3010 6.9962 16.0318
v  0.3009 6.9975 16.0318
v  0.3005 6.9989 16.0318
v  0.2999 7.0001 16.0318
v  0.2990 7.0011 16.0318
v  0.2979 7.0020 16.0318
v  0.2967 7.0026 16.0318
v  0.2940 6.9969 16.1610
v  0.2940 6.8847 16.2453
v  0.2940 6.8847 16.0224
v  0.2940 6.9969 15.9381
v  0.2940 7.1076 16.2453
v  0.2940 7.1076 16.0224
# 176 vertices

vn 0.0000 1.0000 -0.0000
vn 0.0980 0.9952 -0.0000
vn 0.2903 0.9569 -0.0000
vn 0.4714 0.8819 -0.0000
vn 0.6344 0.7730 -0.0000
vn 0.7730 0.6344 -0.0000
vn 0.8819 0.4714 -0.0000
vn 0.9569 0.2903 -0.0000
vn 0.9952 0.0980 -0.0000
vn 0.9952 -0.0980 0.0000
vn 0.9569 -0.2903 0.0000
vn 0.8819 -0.4714 0.0000
vn 0.7730 -0.6344 0.0000
vn 0.6344 -0.7730 0.0000
vn 0.4714 -0.8819 0.0000
vn 0.2903 -0.9569 0.0000
vn 0.0980 -0.9952 0.0000
vn -0.0980 -0.9952 0.0000
vn -0.2903 -0.9569 0.0000
vn -0.4714 -0.8819 0.0000
vn -0.6344 -0.7730 0.0000
vn -0.7730 -0.6344 0.0000
vn -0.8819 -0.4714 0.0000
vn -0.9569 -0.2903 0.0000
vn -0.9952 -0.0980 0.0000
vn -0.9952 0.0980 -0.0000
vn -0.9569 0.2903 -0.0000
vn -0.8819 0.4714 -0.0000
vn -0.7730 0.6344 -0.0000
vn -0.6344 0.7730 -0.0000
vn -0.4714 0.8819 -0.0000
vn -0.8764 0.4685 0.1113
vn -0.2903 0.9569 -0.0000
vn -0.0980 0.9952 -0.0000
vn 0.7310 0.5999 -0.3253
vn 0.7722 -0.6338 -0.0449
vn 0.4458 -0.8340 -0.3253
vn -0.9049 -0.2745 -0.3253
vn 0.0927 0.9411 -0.3253
vn -0.0927 0.9411 -0.3253
vn 0.9049 -0.2745 -0.3253
vn -0.4458 -0.8340 -0.3253
vn -0.7310 0.5999 -0.3253
vn 0.8340 0.4458 -0.3253
vn 0.2745 -0.9049 -0.3253
vn -0.9411 -0.0927 -0.3253
vn 0.2745 0.9049 -0.3253
vn 0.8340 -0.4458 -0.3253
vn -0.5999 -0.7310 -0.3253
vn -0.5999 0.7310 -0.3253
vn 0.9049 0.2745 -0.3253
vn 0.0927 -0.9411 -0.3253
vn -0.9411 0.0927 -0.3253
vn 0.4458 0.8340 -0.3253
vn 0.7310 -0.5999 -0.3253
vn -0.7310 -0.5999 -0.3253
vn -0.4458 0.8340 -0.3253
vn 0.9411 0.0927 -0.3253
vn -0.0927 -0.9411 -0.3253
vn -0.9049 0.2745 -0.3253
vn 0.5999 0.7310 -0.3253
vn 0.5999 -0.7310 -0.3253
vn -0.8340 -0.4458 -0.3253
vn -0.2745 0.9049 -0.3253
vn 0.9411 -0.0927 -0.3253
vn -0.2745 -0.9049 -0.3253
vn -0.8340 0.4458 -0.3253
vn 0.0000 0.0009 -1.0000
vn -0.9560 0.2900 -0.0449
vn 0.6338 -0.7722 -0.0449
vn -0.8810 0.4709 -0.0449
vn 0.4709 -0.8810 -0.0449
vn 0.0979 0.9942 -0.0449
vn -0.7722 0.6338 -0.0449
vn 0.2900 -0.9560 -0.0449
vn 0.2900 0.9560 -0.0449
vn -0.6338 0.7722 -0.0449
vn 0.0979 -0.9942 -0.0449
vn 0.4709 0.8810 -0.0449
vn -0.4709 0.8810 -0.0449
vn -0.0979 -0.9942 -0.0449
vn 0.6338 0.7722 -0.0449
vn -0.2900 0.9560 -0.0449
vn -0.2900 -0.9560 -0.0449
vn 0.7722 0.6338 -0.0449
vn -0.0979 0.9942 -0.0449
vn -0.4709 -0.8810 -0.0449
vn 0.8810 0.4709 -0.0449
vn -0.6338 -0.7722 -0.0449
vn 0.9560 0.2900 -0.0449
vn -0.7722 -0.6338 -0.0449
vn 0.9942 0.0979 -0.0449
vn -0.8810 -0.4709 -0.0449
vn 0.9942 -0.0979 -0.0449
vn -0.9560 -0.2900 -0.0449
vn 0.9560 -0.2900 -0.0449
vn -0.9942 -0.0979 -0.0449
vn 0.8810 -0.4709 -0.0449
vn -0.9942 0.0979 -0.0449
vn -0.2902 -0.9565 0.0305
vn 0.7682 0.6305 0.1113
vn 0.4685 -0.8764 0.1113
vn -0.9510 -0.2885 0.1113
vn 0.0974 0.9890 0.1113
vn -0.0974 0.9890 0.1113
vn 0.9510 -0.2885 0.1113
vn -0.4685 -0.8764 0.1113
vn -0.7682 0.6305 0.1113
vn 0.8764 0.4685 0.1113
vn 0.2885 -0.9510 0.1113
vn -0.9890 -0.0974 0.1113
vn 0.2885 0.9510 0.1113
vn 0.8764 -0.4685 0.1113
vn -0.6305 -0.7682 0.1113
vn -0.6305 0.7682 0.1113
vn 0.9510 0.2885 0.1113
vn 0.0974 -0.9890 0.1113
vn -0.9890 0.0974 0.1113
vn 0.4685 0.8764 0.1113
vn 0.7682 -0.6305 0.1113
vn -0.7682 -0.6305 0.1113
vn -0.4685 0.8764 0.1113
vn 0.9890 0.0974 0.1113
vn -0.0974 -0.9890 0.1113
vn -0.9510 0.2885 0.1113
vn 0.6305 0.7682 0.1113
vn 0.6305 -0.7682 0.1113
vn -0.8764 -0.4685 0.1113
vn -0.2885 0.9510 0.1113
vn 0.9890 -0.0974 0.1113
vn -0.2885 -0.9510 0.1113
vn 0.0000 0.0000 1.0000
vn 0.7727 0.6341 0.0305
vn -0.0980 0.9947 0.0305
vn -0.4712 -0.8815 0.0305
vn 0.8815 0.4712 0.0305
vn -0.6341 -0.7727 0.0305
vn 0.9565 0.2901 0.0305
vn -0.7727 -0.6341 0.0305
vn 0.9947 0.0980 0.0305
vn -0.8815 -0.4712 0.0305
vn 0.9947 -0.0980 0.0305
vn -0.9565 -0.2901 0.0305
vn 0.9565 -0.2901 0.0305
vn -0.9947 -0.0980 0.0305
vn 0.8815 -0.4712 0.0305
vn -0.9947 0.0980 0.0305
vn 0.7727 -0.6341 0.0305
vn -0.9565 0.2901 0.0305
vn 0.6341 -0.7727 0.0305
vn -0.8815 0.4712 0.0305
vn 0.4712 -0.8815 0.0305
vn 0.0980 0.9947 0.0305
vn -0.7727 0.6341 0.0305
vn 0.2902 -0.9565 0.0305
vn 0.2901 0.9565 0.0305
vn -0.6341 0.7727 0.0305
vn 0.0980 -0.9947 0.0305
vn 0.4712 0.8815 0.0305
vn -0.4712 0.8815 0.0305
vn -0.0980 -0.9947 0.0305
vn 0.6341 0.7727 0.0305
vn -0.2901 0.9565 0.0305
vn 1.0000 -0.0000 0.0000
# 164 vertex normals

vt 0.0584 0.9342 0.0000
vt 0.0613 0.9342 0.0000
vt 0.0613 0.9348 0.0000
vt 0.0584 0.9348 0.0000
vt 0.0557 0.9342 0.0000
vt 0.0557 0.9348 0.0000
vt 0.1916 0.9081 0.0000
vt 0.1916 0.9211 0.0000
vt 0.1910 0.9211 0.0000
vt 0.1910 0.9081 0.0000
vt 0.1905 0.9211 0.0000
vt 0.1905 0.9081 0.0000
vt 0.1900 0.9211 0.0000
vt 0.1900 0.9081 0.0000
vt 0.1894 0.9211 0.0000
vt 0.1894 0.9081 0.0000
vt 0.1889 0.9211 0.0000
vt 0.1889 0.9081 0.0000
vt 0.1883 0.9211 0.0000
vt 0.1883 0.9081 0.0000
vt 0.1878 0.9211 0.0000
vt 0.1878 0.9081 0.0000
vt 0.1873 0.9211 0.0000
vt 0.1873 0.9081 0.0000
vt 0.1867 0.9211 0.0000
vt 0.1867 0.9081 0.0000
vt 0.1862 0.9211 0.0000
vt 0.1862 0.9081 0.0000
vt 0.1856 0.9211 0.0000
vt 0.1856 0.9081 0.0000
vt 0.1851 0.9211 0.0000
vt 0.1851 0.9081 0.0000
vt 0.1846 0.9211 0.0000
vt 0.1846 0.9081 0.0000
vt 0.1840 0.9211 0.0000
vt 0.1840 0.9081 0.0000
vt 0.1835 0.9211 0.0000
vt 0.1835 0.9081 0.0000
vt 0.1829 0.9211 0.0000
vt 0.1829 0.9081 0.0000
vt 0.1824 0.9211 0.0000
vt 0.1824 0.9081 0.0000
vt 0.1819 0.9211 0.0000
vt 0.1819 0.9081 0.0000
vt 0.1813 0.9211 0.0000
vt 0.1813 0.9081 0.0000
vt 0.1808 0.9211 0.0000
vt 0.1808 0.9081 0.0000
vt 0.1802 0.9211 0.0000
vt 0.1802 0.9081 0.0000
vt 0.1797 0.9211 0.0000
vt 0.1797 0.9081 0.0000
vt 0.1792 0.9211 0.0000
vt 0.1792 0.9081 0.0000
vt 0.1786 0.9211 0.0000
vt 0.1786 0.9081 0.0000
vt 0.1781 0.9211 0.0000
vt 0.1781 0.9081 0.0000
vt 0.1775 0.9211 0.0000
vt 0.1775 0.9081 0.0000
vt 0.1770 0.9211 0.0000
vt 0.1770 0.9081 0.0000
vt 0.1765 0.9211 0.0000
vt 0.1765 0.9081 0.0000
vt 0.1759 0.9211 0.0000
vt 0.1759 0.9081 0.0000
vt 0.1754 0.9211 0.0000
vt 0.1754 0.9081 0.0000
vt 0.1748 0.9211 0.0000
vt 0.1748 0.9081 0.0000
vt 0.1743 0.9211 0.0000
vt 0.1743 0.9081 0.0000
vt 0.1952 0.9574 0.0000
vt 0.1969 0.9571 0.0000
vt 0.1985 0.9561 0.0000
vt 0.2000 0.9545 0.0000
vt 0.2013 0.9523 0.0000
vt 0.2024 0.9496 0.0000
vt 0.2032 0.9465 0.0000
vt 0.2037 0.9432 0.0000
vt 0.2038 0.9397 0.0000
vt 0.2037 0.9363 0.0000
vt 0.2032 0.9330 0.0000
vt 0.2024 0.9299 0.0000
vt 0.2013 0.9272 0.0000
vt 0.2000 0.9250 0.0000
vt 0.1985 0.9234 0.0000
vt 0.1969 0.9224 0.0000
vt 0.1952 0.9220 0.0000
vt 0.1936 0.9224 0.0000
vt 0.1919 0.9234 0.0000
vt 0.1905 0.9250 0.0000
vt 0.1891 0.9272 0.0000
vt 0.1881 0.9299 0.0000
vt 0.1873 0.9330 0.0000
vt 0.1868 0.9363 0.0000
vt 0.1866 0.9397 0.0000
vt 0.1868 0.9432 0.0000
vt 0.1873 0.9465 0.0000
vt 0.1881 0.9496 0.0000
vt 0.1891 0.9523 0.0000
vt 0.1905 0.9545 0.0000
vt 0.1919 0.9561 0.0000
vt 0.1936 0.9571 0.0000
vt 0.1790 0.9571 0.0000
vt 0.1773 0.9574 0.0000
vt 0.1756 0.9571 0.0000
vt 0.1740 0.9561 0.0000
vt 0.1725 0.9545 0.0000
vt 0.1712 0.9523 0.0000
vt 0.1702 0.9496 0.0000
vt 0.1694 0.9465 0.0000
vt 0.1689 0.9432 0.0000
vt 0.1687 0.9397 0.0000
vt 0.1689 0.9363 0.0000
vt 0.1694 0.9330 0.0000
vt 0.1702 0.9299 0.0000
vt 0.1712 0.9272 0.0000
vt 0.1725 0.9250 0.0000
vt 0.1740 0.9234 0.0000
vt 0.1756 0.9224 0.0000
vt 0.1773 0.9220 0.0000
vt 0.1790 0.9224 0.0000
vt 0.1806 0.9234 0.0000
vt 0.1821 0.9250 0.0000
vt 0.1834 0.9272 0.0000
vt 0.1845 0.9299 0.0000
vt 0.1853 0.9330 0.0000
vt 0.1857 0.9363 0.0000
vt 0.1859 0.9397 0.0000
vt 0.1857 0.9432 0.0000
vt 0.1853 0.9465 0.0000
vt 0.1845 0.9496 0.0000
vt 0.1834 0.9523 0.0000
vt 0.1821 0.9545 0.0000
vt 0.1806 0.9561 0.0000
# 136 texture coords

o Plane_001
g Plane_001
usemtl 11___Default
s off
f 1/1/1 2/2/1 3/3/1 
f 3/3/1 4/4/1 1/1/1 
f 5/5/1 1/1/1 4/4/1 
f 4/4/1 6/6/1 5/5/1 
f 7/7/2 8/8/2 9/9/2 
f 9/9/2 10/10/2 7/7/2 
f 10/10/3 9/9/3 11/11/3 
f 11/11/3 12/12/3 10/10/3 
f 12/12/4 11/11/4 13/13/4 
f 13/13/4 14/14/4 12/12/4 
f 14/14/5 13/13/5 15/15/5 
f 15/15/5 16/16/5 14/14/5 
f 16/16/6 15/15/6 17/17/6 
f 17/17/6 18/18/6 16/16/6 
f 18/18/7 17/17/7 19/19/7 
f 19/19/7 20/20/7 18/18/7 
f 20/20/8 19/19/8 21/21/8 
f 21/21/8 22/22/8 20/20/8 
f 22/22/9 21/21/9 23/23/9 
f 23/23/9 24/24/9 22/22/9 
f 24/24/10 23/23/10 25/25/10 
f 25/25/10 26/26/10 24/24/10 
f 26/26/11 25/25/11 27/27/11 
f 27/27/11 28/28/11 26/26/11 
f 28/28/12 27/27/12 29/29/12 
f 29/29/12 30/30/12 28/28/12 
f 30/30/13 29/29/13 31/31/13 
f 31/31/13 32/32/13 30/30/13 
f 32/32/14 31/31/14 33/33/14 
f 33/33/14 34/34/14 32/32/14 
f 34/34/15 33/33/15 35/35/15 
f 35/35/15 36/36/15 34/34/15 
f 36/36/16 35/35/16 37/37/16 
f 37/37/16 38/38/16 36/36/16 
f 38/38/17 37/37/17 39/39/17 
f 39/39/17 40/40/17 38/38/17 
f 40/40/18 39/39/18 41/41/18 
f 41/41/18 42/42/18 40/40/18 
f 42/42/19 41/41/19 43/43/19 
f 43/43/19 44/44/19 42/42/19 
f 44/44/20 43/43/20 45/45/20 
f 45/45/20 46/46/20 44/44/20 
f 46/46/21 45/45/21 47/47/21 
f 47/47/21 48/48/21 46/46/21 
f 48/48/22 47/47/22 49/49/22 
f 49/49/22 50/50/22 48/48/22 
f 50/50/23 49/49/23 51/51/23 
f 51/51/23 52/52/23 50/50/23 
f 52/52/24 51/51/24 53/53/24 
f 53/53/24 54/54/24 52/52/24 
f 54/54/25 53/53/25 55/55/25 
f 55/55/25 56/56/25 54/54/25 
f 56/56/26 55/55/26 57/57/26 
f 57/57/26 58/58/26 56/56/26 
f 58/58/27 57/57/27 59/59/27 
f 59/59/27 60/60/27 58/58/27 
f 60/60/28 59/59/28 61/61/28 
f 61/61/28 62/62/28 60/60/28 
f 62/62/29 61/61/29 63/63/29 
f 63/63/29 64/64/29 62/62/29 
f 64/64/30 63/63/30 65/65/30 
f 65/65/30 66/66/30 64/64/30 
f 66/66/31 65/65/31 67/67/31 
f 67/67/31 68/68/31 66/66/31 
f 61/61/32 59/59/32 69/59/32 
f 69/59/32 70/61/32 61/61/32 
f 68/68/33 67/67/33 71/69/33 
f 71/69/33 72/70/33 68/68/33 
f 72/70/34 71/69/34 8/71/34 
f 8/71/34 7/72/34 72/70/34 
f 16/16/35 18/18/35 73/18/35 
f 73/18/35 74/16/35 16/16/35 
f 75/30/36 76/32/36 77/32/36 
f 77/32/36 77/30/36 75/30/36 
f 34/34/37 36/36/37 78/36/37 
f 78/36/37 79/34/37 34/34/37 
f 52/52/38 54/54/38 80/54/38 
f 80/54/38 81/52/38 52/52/38 
f 7/7/39 10/10/39 82/10/39 
f 82/10/39 83/7/39 7/7/39 
f 72/70/40 7/72/40 83/72/40 
f 83/72/40 84/70/40 72/70/40 
f 26/26/41 28/28/41 85/28/41 
f 85/28/41 86/26/41 26/26/41 
f 44/44/42 46/46/42 87/46/42 
f 87/46/42 88/44/42 44/44/42 
f 62/62/43 64/64/43 89/64/43 
f 89/64/43 90/62/43 62/62/43 
f 18/18/44 20/20/44 91/20/44 
f 91/20/44 73/18/44 18/18/44 
f 36/36/45 38/38/45 92/38/45 
f 92/38/45 78/36/45 36/36/45 
f 54/54/46 56/56/46 93/56/46 
f 93/56/46 80/54/46 54/54/46 
f 10/10/47 12/12/47 94/12/47 
f 94/12/47 82/10/47 10/10/47 
f 28/28/48 30/30/48 75/30/48 
f 75/30/48 85/28/48 28/28/48 
f 46/46/49 48/48/49 95/48/49 
f 95/48/49 87/46/49 46/46/49 
f 64/64/50 66/66/50 96/66/50 
f 96/66/50 89/64/50 64/64/50 
f 20/20/51 22/22/51 97/22/51 
f 97/22/51 91/20/51 20/20/51 
f 38/38/52 40/40/52 98/40/52 
f 98/40/52 92/38/52 38/38/52 
f 56/56/53 58/58/53 99/58/53 
f 99/58/53 93/56/53 56/56/53 
f 12/12/54 14/14/54 100/14/54 
f 100/14/54 94/12/54 12/12/54 
f 30/30/55 32/32/55 76/32/55 
f 76/32/55 75/30/55 30/30/55 
f 48/48/56 50/50/56 101/50/56 
f 101/50/56 95/48/56 48/48/56 
f 66/66/57 68/68/57 102/68/57 
f 102/68/57 96/66/57 66/66/57 
f 22/22/58 24/24/58 103/24/58 
f 103/24/58 97/22/58 22/22/58 
f 40/40/59 42/42/59 104/42/59 
f 104/42/59 98/40/59 40/40/59 
f 58/58/60 60/60/60 105/60/60 
f 105/60/60 99/58/60 58/58/60 
f 14/14/61 16/16/61 74/16/61 
f 74/16/61 100/14/61 14/14/61 
f 32/32/62 34/34/62 79/34/62 
f 79/34/62 76/32/62 32/32/62 
f 50/50/63 52/52/63 81/52/63 
f 81/52/63 101/50/63 50/50/63 
f 68/68/64 72/70/64 84/70/64 
f 84/70/64 102/68/64 68/68/64 
f 24/24/65 26/26/65 86/26/65 
f 86/26/65 103/24/65 24/24/65 
f 42/42/66 44/44/66 88/44/66 
f 88/44/66 104/42/66 42/42/66 
f 60/60/67 62/62/67 90/62/67 
f 90/62/67 105/60/67 60/60/67 
f 106/73/68 106/74/68 77/75/68 
f 106/73/68 77/75/68 77/76/68 
f 106/73/68 77/76/68 77/77/68 
f 106/73/68 77/77/68 77/78/68 
f 106/73/68 77/78/68 77/79/68 
f 106/73/68 77/79/68 77/80/68 
f 106/73/68 77/80/68 77/81/68 
f 106/73/68 77/81/68 77/82/68 
f 106/73/68 77/82/68 77/83/68 
f 106/73/68 77/83/68 77/84/68 
f 106/73/68 77/84/68 77/85/68 
f 106/73/68 77/85/68 107/86/68 
f 106/73/68 107/86/68 107/87/68 
f 106/73/68 107/87/68 108/88/68 
f 106/73/68 108/88/68 108/89/68 
f 106/73/68 108/89/68 108/90/68 
f 106/73/68 108/90/68 108/91/68 
f 106/73/68 108/91/68 108/92/68 
f 106/73/68 108/92/68 106/93/68 
f 106/73/68 106/93/68 106/94/68 
f 106/73/68 106/94/68 106/95/68 
f 106/73/68 106/95/68 106/96/68 
f 106/73/68 106/96/68 106/97/68 
f 106/73/68 106/97/68 106/98/68 
f 106/73/68 106/98/68 106/99/68 
f 106/73/68 106/99/68 106/100/68 
f 106/73/68 106/100/68 106/101/68 
f 106/73/68 106/101/68 106/102/68 
f 106/73/68 106/102/68 106/103/68 
f 106/73/68 106/103/68 106/104/68 
f 99/58/69 105/60/69 106/60/69 
f 106/60/69 106/58/69 99/58/69 
f 76/32/70 79/34/70 107/34/70 
f 107/34/70 77/32/70 76/32/70 
f 105/60/71 90/62/71 106/62/71 
f 106/62/71 106/60/71 105/60/71 
f 79/34/72 78/36/72 107/36/72 
f 107/36/72 107/34/72 79/34/72 
f 83/7/73 82/10/73 106/10/73 
f 106/10/73 106/7/73 83/7/73 
f 90/62/74 89/64/74 106/64/74 
f 106/64/74 106/62/74 90/62/74 
f 78/36/75 92/38/75 108/38/75 
f 108/38/75 107/36/75 78/36/75 
f 82/10/76 94/12/76 77/12/76 
f 77/12/76 106/10/76 82/10/76 
f 89/64/77 96/66/77 106/66/77 
f 106/66/77 106/64/77 89/64/77 
f 92/38/78 98/40/78 108/40/78 
f 108/40/78 108/38/78 92/38/78 
f 94/12/79 100/14/79 77/14/79 
f 77/14/79 77/12/79 94/12/79 
f 96/66/80 102/68/80 106/68/80 
f 106/68/80 106/66/80 96/66/80 
f 98/40/81 104/42/81 108/42/81 
f 108/42/81 108/40/81 98/40/81 
f 100/14/82 74/16/82 77/16/82 
f 77/16/82 77/14/82 100/14/82 
f 102/68/83 84/70/83 106/70/83 
f 106/70/83 106/68/83 102/68/83 
f 104/42/84 88/44/84 108/44/84 
f 108/44/84 108/42/84 104/42/84 
f 74/16/85 73/18/85 77/18/85 
f 77/18/85 77/16/85 74/16/85 
f 84/70/86 83/72/86 106/72/86 
f 106/72/86 106/70/86 84/70/86 
f 88/44/87 87/46/87 108/46/87 
f 108/46/87 108/44/87 88/44/87 
f 73/18/88 91/20/88 77/20/88 
f 77/20/88 77/18/88 73/18/88 
f 87/46/89 95/48/89 106/48/89 
f 106/48/89 108/46/89 87/46/89 
f 91/20/90 97/22/90 77/22/90 
f 77/22/90 77/20/90 91/20/90 
f 95/48/91 101/50/91 106/50/91 
f 106/50/91 106/48/91 95/48/91 
f 97/22/92 103/24/92 77/24/92 
f 77/24/92 77/22/92 97/22/92 
f 101/50/93 81/52/93 106/52/93 
f 106/52/93 106/50/93 101/50/93 
f 103/24/94 86/26/94 77/26/94 
f 77/26/94 77/24/94 103/24/94 
f 81/52/95 80/54/95 106/54/95 
f 106/54/95 106/52/95 81/52/95 
f 86/26/96 85/28/96 77/28/96 
f 77/28/96 77/26/96 86/26/96 
f 80/54/97 93/56/97 106/56/97 
f 106/56/97 106/54/97 80/54/97 
f 85/28/98 75/30/98 77/30/98 
f 77/30/98 77/28/98 85/28/98 
f 93/56/99 99/58/99 106/58/99 
f 106/58/99 106/56/99 93/56/99 
f 109/43/100 110/41/100 111/41/100 
f 111/41/100 112/43/100 109/43/100 
f 17/17/101 15/15/101 113/15/101 
f 113/15/101 114/17/101 17/17/101 
f 35/35/102 33/33/102 115/33/102 
f 115/33/102 116/35/102 35/35/102 
f 53/53/103 51/51/103 117/51/103 
f 117/51/103 118/53/103 53/53/103 
f 9/9/104 8/8/104 119/8/104 
f 119/8/104 120/9/104 9/9/104 
f 8/71/105 71/69/105 121/69/105 
f 121/69/105 119/71/105 8/71/105 
f 27/27/106 25/25/106 122/25/106 
f 122/25/106 123/27/106 27/27/106 
f 45/45/107 43/43/107 109/43/107 
f 109/43/107 124/45/107 45/45/107 
f 63/63/108 61/61/108 70/61/108 
f 70/61/108 125/63/108 63/63/108 
f 19/19/109 17/17/109 114/17/109 
f 114/17/109 126/19/109 19/19/109 
f 37/37/110 35/35/110 116/35/110 
f 116/35/110 127/37/110 37/37/110 
f 55/55/111 53/53/111 118/53/111 
f 118/53/111 128/55/111 55/55/111 
f 11/11/112 9/9/112 120/9/112 
f 120/9/112 129/11/112 11/11/112 
f 29/29/113 27/27/113 123/27/113 
f 123/27/113 130/29/113 29/29/113 
f 47/47/114 45/45/114 124/45/114 
f 124/45/114 131/47/114 47/47/114 
f 65/65/115 63/63/115 125/63/115 
f 125/63/115 132/65/115 65/65/115 
f 21/21/116 19/19/116 126/19/116 
f 126/19/116 133/21/116 21/21/116 
f 39/39/117 37/37/117 127/37/117 
f 127/37/117 134/39/117 39/39/117 
f 57/57/118 55/55/118 128/55/118 
f 128/55/118 135/57/118 57/57/118 
f 13/13/119 11/11/119 129/11/119 
f 129/11/119 136/13/119 13/13/119 
f 31/31/120 29/29/120 130/29/120 
f 130/29/120 137/31/120 31/31/120 
f 49/49/121 47/47/121 131/47/121 
f 131/47/121 138/49/121 49/49/121 
f 67/67/122 65/65/122 132/65/122 
f 132/65/122 139/67/122 67/67/122 
f 23/23/123 21/21/123 133/21/123 
f 133/21/123 140/23/123 23/23/123 
f 41/41/124 39/39/124 134/39/124 
f 134/39/124 110/41/124 41/41/124 
f 59/59/125 57/57/125 135/57/125 
f 135/57/125 69/59/125 59/59/125 
f 15/15/126 13/13/126 136/13/126 
f 136/13/126 113/15/126 15/15/126 
f 33/33/127 31/31/127 137/31/127 
f 137/31/127 115/33/127 33/33/127 
f 51/51/128 49/49/128 138/49/128 
f 138/49/128 117/51/128 51/51/128 
f 71/69/129 67/67/129 139/67/129 
f 139/67/129 121/69/129 71/69/129 
f 25/25/130 23/23/130 140/23/130 
f 140/23/130 122/25/130 25/25/130 
f 43/43/131 41/41/131 110/41/131 
f 110/41/131 109/43/131 43/43/131 
f 141/105/132 142/106/132 143/107/132 
f 141/105/132 143/107/132 144/108/132 
f 141/105/132 144/108/132 145/109/132 
f 141/105/132 145/109/132 146/110/132 
f 141/105/132 146/110/132 147/111/132 
f 141/105/132 147/111/132 148/112/132 
f 141/105/132 148/112/132 149/113/132 
f 141/105/132 149/113/132 150/114/132 
f 141/105/132 150/114/132 151/115/132 
f 141/105/132 151/115/132 152/116/132 
f 141/105/132 152/116/132 153/117/132 
f 141/105/132 153/117/132 154/118/132 
f 141/105/132 154/118/132 155/119/132 
f 141/105/132 155/119/132 112/120/132 
f 141/105/132 112/120/132 111/121/132 
f 141/105/132 111/121/132 156/122/132 
f 141/105/132 156/122/132 157/123/132 
f 141/105/132 157/123/132 158/124/132 
f 141/105/132 158/124/132 159/125/132 
f 141/105/132 159/125/132 160/126/132 
f 141/105/132 160/126/132 161/127/132 
f 141/105/132 161/127/132 162/128/132 
f 141/105/132 162/128/132 163/129/132 
f 141/105/132 163/129/132 164/130/132 
f 141/105/132 164/130/132 165/131/132 
f 141/105/132 165/131/132 166/132/132 
f 141/105/132 166/132/132 167/133/132 
f 141/105/132 167/133/132 168/134/132 
f 141/105/132 168/134/132 169/135/132 
f 141/105/132 169/135/132 170/136/132 
f 114/17/133 113/15/133 168/15/133 
f 168/15/133 167/17/133 114/17/133 
f 119/71/134 121/69/134 143/69/134 
f 143/69/134 142/71/134 119/71/134 
f 124/45/135 109/43/135 112/43/135 
f 112/43/135 155/45/135 124/45/135 
f 126/19/136 114/17/136 167/17/136 
f 167/17/136 166/19/136 126/19/136 
f 131/47/137 124/45/137 155/45/137 
f 155/45/137 154/47/137 131/47/137 
f 133/21/138 126/19/138 166/19/138 
f 166/19/138 165/21/138 133/21/138 
f 138/49/139 131/47/139 154/47/139 
f 154/47/139 153/49/139 138/49/139 
f 140/23/140 133/21/140 165/21/140 
f 165/21/140 164/23/140 140/23/140 
f 117/51/141 138/49/141 153/49/141 
f 153/49/141 152/51/141 117/51/141 
f 122/25/142 140/23/142 164/23/142 
f 164/23/142 163/25/142 122/25/142 
f 118/53/143 117/51/143 152/51/143 
f 152/51/143 151/53/143 118/53/143 
f 123/27/144 122/25/144 163/25/144 
f 163/25/144 162/27/144 123/27/144 
f 128/55/145 118/53/145 151/53/145 
f 151/53/145 150/55/145 128/55/145 
f 130/29/146 123/27/146 162/27/146 
f 162/27/146 161/29/146 130/29/146 
f 135/57/147 128/55/147 150/55/147 
f 150/55/147 149/57/147 135/57/147 
f 137/31/148 130/29/148 161/29/148 
f 161/29/148 160/31/148 137/31/148 
f 69/59/149 135/57/149 149/57/149 
f 149/57/149 148/59/149 69/59/149 
f 115/33/150 137/31/150 160/31/150 
f 160/31/150 159/33/150 115/33/150 
f 70/61/151 69/59/151 148/59/151 
f 148/59/151 147/61/151 70/61/151 
f 116/35/152 115/33/152 159/33/152 
f 159/33/152 158/35/152 116/35/152 
f 120/9/153 119/8/153 142/8/153 
f 142/8/153 141/9/153 120/9/153 
f 125/63/154 70/61/154 147/61/154 
f 147/61/154 146/63/154 125/63/154 
f 127/37/155 116/35/155 158/35/155 
f 158/35/155 157/37/155 127/37/155 
f 129/11/156 120/9/156 141/9/156 
f 141/9/156 170/11/156 129/11/156 
f 132/65/157 125/63/157 146/63/157 
f 146/63/157 145/65/157 132/65/157 
f 134/39/158 127/37/158 157/37/158 
f 157/37/158 156/39/158 134/39/158 
f 136/13/159 129/11/159 170/11/159 
f 170/11/159 169/13/159 136/13/159 
f 139/67/160 132/65/160 145/65/160 
f 145/65/160 144/67/160 139/67/160 
f 110/41/161 134/39/161 156/39/161 
f 156/39/161 111/41/161 110/41/161 
f 113/15/162 136/13/162 169/13/162 
f 169/13/162 168/15/162 113/15/162 
f 121/69/163 139/67/163 144/67/163 
f 144/67/163 143/69/163 121/69/163 
f 171/1/164 172/2/164 173/3/164 
f 173/3/164 174/4/164 171/1/164 
f 175/5/164 171/1/164 174/4/164 
f 174/4/164 176/6/164 175/5/164 
# 388 faces

