# 3ds Max Wavefront OBJ Exporter v0.99 - (c)2007 guruware
# File Created: 06.05.2025 23:23:54

mtllib DadosEnMesa.mtl

#
# object Box001
#

v  4.0384 2.9956 2.2845
v  3.9538 2.9956 2.1750
v  4.0633 2.9956 2.0904
v  4.1478 2.9956 2.1999
v  4.0384 3.1340 2.2845
v  4.1478 3.1340 2.1999
v  4.0633 3.1340 2.0904
v  3.9538 3.1340 2.1750
# 8 vertices

vn -0.1041 -0.5774 0.8098
vn -0.8098 -0.5774 -0.1041
vn 0.1041 -0.5774 -0.8098
vn 0.8098 -0.5774 0.1041
vn -0.1041 0.5774 0.8098
vn 0.8098 0.5774 0.1041
vn 0.1041 0.5774 -0.8098
vn -0.8098 0.5774 -0.1041
# 8 vertex normals

vt 0.8707 0.6188 0.0000
vt 0.6895 0.6165 0.0000
vt 0.6913 0.3818 0.0000
vt 0.8725 0.3841 0.0000
vt 0.3171 0.3816 0.0000
vt 0.4956 0.3816 0.0000
vt 0.4956 0.6189 0.0000
vt 0.3171 0.6189 0.0000
vt 0.5048 0.3810 0.0000
vt 0.6830 0.3810 0.0000
vt 0.6830 0.6188 0.0000
vt 0.5048 0.6188 0.0000
vt 0.3162 0.6314 0.0000
vt 0.4969 0.6314 0.0000
vt 0.4969 0.8716 0.0000
vt 0.3162 0.8716 0.0000
vt 0.3069 0.3795 0.0000
vt 0.3070 0.6204 0.0000
vt 0.1292 0.6204 0.0000
vt 0.1292 0.3795 0.0000
vt 0.3167 0.1310 0.0000
vt 0.4961 0.1310 0.0000
vt 0.4961 0.3689 0.0000
vt 0.3167 0.3689 0.0000
# 24 texture coords

o Box001
g Box001
usemtl 08___Default
s 2
f 1/1/1 2/2/2 3/3/3 4/4/4 
s 4
f 5/5/5 6/6/6 7/7/7 8/8/8 
s 8
f 1/9/1 4/10/4 6/11/6 5/12/5 
s 16
f 4/13/4 3/14/3 7/15/7 6/16/6 
s 32
f 3/17/3 2/18/2 8/19/8 7/20/7 
s 64
f 2/21/2 1/22/1 5/23/5 8/24/8 
# 6 polygons

#
# object Box002
#

v  3.8190 3.1340 2.2712
v  3.8190 2.9956 2.2712
v  3.8522 2.9956 2.1368
v  3.8522 3.1340 2.1368
v  3.6847 3.1340 2.2380
v  3.7178 3.1340 2.1037
v  3.7178 2.9956 2.1037
v  3.6847 2.9956 2.2380
# 8 vertices

vn 0.4224 0.5774 0.6987
vn 0.4224 -0.5774 0.6987
vn 0.6987 -0.5774 -0.4224
vn 0.6987 0.5774 -0.4224
vn -0.6987 0.5774 0.4224
vn -0.4224 0.5774 -0.6987
vn -0.4224 -0.5774 -0.6987
vn -0.6987 -0.5774 0.4224
# 8 vertex normals

vt 0.8707 0.6188 0.0000
vt 0.6895 0.6165 0.0000
vt 0.6913 0.3818 0.0000
vt 0.8725 0.3841 0.0000
vt 0.3171 0.3816 0.0000
vt 0.4956 0.3816 0.0000
vt 0.4956 0.6189 0.0000
vt 0.3171 0.6189 0.0000
vt 0.5048 0.3810 0.0000
vt 0.6830 0.3810 0.0000
vt 0.6830 0.6188 0.0000
vt 0.5048 0.6188 0.0000
vt 0.3162 0.6314 0.0000
vt 0.4969 0.6314 0.0000
vt 0.4969 0.8716 0.0000
vt 0.3162 0.8716 0.0000
vt 0.3069 0.3795 0.0000
vt 0.3070 0.6204 0.0000
vt 0.1292 0.6204 0.0000
vt 0.1292 0.3795 0.0000
vt 0.3167 0.1310 0.0000
vt 0.4961 0.1310 0.0000
vt 0.4961 0.3689 0.0000
vt 0.3167 0.3689 0.0000
# 24 texture coords

o Box002
g Box002
usemtl 08___Default
s 2
f 9/25/9 10/26/10 11/27/11 12/28/12 
s 4
f 13/29/13 14/30/14 15/31/15 16/32/16 
s 8
f 9/33/9 12/34/12 14/35/14 13/36/13 
s 16
f 12/37/12 11/38/11 15/39/15 14/40/14 
s 32
f 11/41/11 10/42/10 16/43/16 15/44/15 
s 64
f 10/45/10 9/46/9 13/47/13 16/48/16 
# 6 polygons

