# 3ds Max Wavefront OBJ Exporter v0.99 - (c)2007 guruware
# File Created: 29.04.2025 14:50:33

mtllib BancaTexturizada.mtl

#
# object Cube_120
#

v  -5.1950 5.4985 -1.5375
v  -5.1950 4.6540 -1.4680
v  -5.1950 4.6740 -1.2880
v  -5.1950 5.5185 -1.3575
v  5.3090 5.4985 -1.5375
v  5.3090 5.5185 -1.3575
v  5.3090 4.6540 -1.4680
v  5.3090 4.6740 -1.2880
v  -5.0685 2.3180 -0.3625
v  -5.0685 2.3180 0.5940
v  -5.0685 2.6685 0.5940
v  -5.0685 2.6685 -0.3625
v  5.3150 2.3180 -0.3625
v  5.3150 2.6685 -0.3625
v  5.3150 2.3180 0.5940
v  5.3150 2.6685 0.5940
v  -5.1870 2.3475 0.5980
v  -5.1870 2.3475 1.2165
v  -5.1870 2.6885 1.2165
v  -5.1870 2.6885 0.5980
v  5.4185 2.3475 0.5980
v  5.4185 2.6885 0.5980
v  5.4185 2.3475 1.2165
v  5.4185 2.6885 1.2165
v  -5.1860 2.3630 -0.3710
v  -5.1860 2.6270 -0.3710
v  -5.1860 2.6270 -1.2675
v  -5.1860 2.3630 -1.2675
v  5.4305 2.6270 -1.2675
v  5.4305 2.3630 -1.2675
v  5.4305 2.6270 -0.3710
v  5.4305 2.3630 -0.3710
v  0.4170 2.5630 -1.2525
v  0.4170 2.5380 -1.4625
v  0.4170 4.9100 -1.6735
v  0.4170 4.9355 -1.4635
v  -0.1825 4.9100 -1.6735
v  -0.1825 4.9355 -1.4635
v  -0.1825 2.5380 -1.4625
v  -0.1825 2.5630 -1.2525
v  4.6925 2.4555 -1.2450
v  4.6925 2.4290 -1.4640
v  4.6925 5.0340 -1.6955
v  4.6925 5.0600 -1.4765
v  4.0930 5.0340 -1.6955
v  4.0930 5.0600 -1.4765
v  4.0930 2.4290 -1.4640
v  4.0930 2.4555 -1.2450
v  -3.7765 2.4555 -1.2450
v  -3.7765 2.4290 -1.4640
v  -3.7765 5.0340 -1.6955
v  -3.7765 5.0600 -1.4765
v  -4.3755 5.0340 -1.6955
v  -4.3755 5.0600 -1.4765
v  -4.3755 2.4290 -1.4640
v  -4.3755 2.4555 -1.2450
v  -5.1375 4.4305 -1.4470
v  -5.1375 3.7385 -1.3900
v  -5.1375 3.7570 -1.2290
v  -5.1375 4.4485 -1.2855
v  5.3670 4.4305 -1.4470
v  5.3670 4.4485 -1.2855
v  5.3670 3.7385 -1.3900
v  5.3670 3.7570 -1.2290
v  -3.9100 -0.0135 1.2200
v  -3.9100 -0.0465 0.9455
v  -3.9100 2.4165 0.7265
v  -3.9100 2.4500 1.0010
v  -4.3225 2.4165 0.7265
v  -4.3225 2.4500 1.0010
v  -4.3225 -0.0465 0.9455
v  -4.3225 -0.0135 1.2200
v  4.6425 -0.0135 1.2200
v  4.6425 -0.0465 0.9455
v  4.6425 2.4165 0.7265
v  4.6425 2.4500 1.0010
v  4.2865 2.4165 0.7265
v  4.2865 2.4500 1.0010
v  4.2865 -0.0465 0.9455
v  4.2865 -0.0135 1.2200
v  -3.9100 -0.0460 -1.1815
v  -3.9100 -0.0045 -1.4560
v  -3.9100 2.4490 -1.1810
v  -3.9100 2.4075 -0.9070
v  -4.3225 2.4490 -1.1810
v  -4.3225 2.4075 -0.9070
v  -4.3225 -0.0045 -1.4560
v  -4.3225 -0.0460 -1.1815
v  4.6425 -0.0460 -1.1815
v  4.6425 -0.0045 -1.4560
v  4.6425 2.4490 -1.1810
v  4.6425 2.4075 -0.9070
v  4.2865 2.4490 -1.1810
v  4.2865 2.4075 -0.9070
v  4.2865 -0.0045 -1.4560
v  4.2865 -0.0460 -1.1815
# 96 vertices

vn -1.0000 0.0000 -0.0000
vn 0.0000 0.9954 -0.0954
vn 1.0000 0.0000 -0.0000
vn 0.0000 -0.9954 0.0954
vn 0.0000 0.0954 0.9954
vn 0.0000 -0.0954 -0.9954
vn 0.0000 0.0000 -1.0000
vn 0.0000 0.0000 1.0000
vn 0.0000 1.0000 -0.0000
vn 0.0000 -1.0000 -0.0000
vn 0.0000 0.9947 -0.1030
vn 0.0000 -0.9947 0.1030
vn 0.0000 0.1030 0.9947
vn 0.0000 -0.1030 -0.9947
vn 0.0000 0.9916 0.1293
vn 0.0000 -0.9916 -0.1293
vn 0.0000 -0.1293 0.9916
vn 0.0000 0.1293 -0.9916
# 18 vertex normals

vt 0.5404 0.2718 0.0000
vt 0.5414 0.0410 0.0000
vt 0.4402 0.0414 0.0000
vt 0.4392 0.2721 0.0000
vt 0.5395 0.5025 0.0000
vt 0.4373 0.5049 0.0000
vt 0.5376 0.7353 0.0000
vt 0.4364 0.7357 0.0000
vt 0.5375 0.9641 0.0000
vt 0.4363 0.9644 0.0000
vt 0.3370 0.5032 0.0000
vt 0.3361 0.7340 0.0000
vt 0.6397 0.7330 0.0000
vt 0.6407 0.5022 0.0000
vt 0.6250 0.2500 0.0000
vt 0.6250 0.0000 0.0000
vt 0.3750 0.0000 0.0000
vt 0.3750 0.2500 0.0000
vt 0.6250 0.5000 0.0000
vt 0.3750 0.5000 0.0000
vt 0.6250 0.7500 0.0000
vt 0.3750 0.7500 0.0000
vt 0.6250 1.0000 0.0000
vt 0.3750 1.0000 0.0000
vt 0.1250 0.5000 0.0000
vt 0.1250 0.7500 0.0000
vt 0.8750 0.7500 0.0000
vt 0.8750 0.5000 0.0000
vt 0.5488 0.6438 0.0000
vt 0.5513 0.3239 0.0000
vt 0.6588 0.3264 0.0000
vt 0.6563 0.6463 0.0000
vt 0.7663 0.3289 0.0000
vt 0.7638 0.6488 0.0000
vt 0.8738 0.3314 0.0000
vt 0.8713 0.6513 0.0000
vt 0.9813 0.3339 0.0000
vt 0.9788 0.6538 0.0000
vt 0.7613 0.9687 0.0000
vt 0.8688 0.9712 0.0000
vt 0.7688 0.0090 0.0000
vt 0.8763 0.0115 0.0000
vt 0.5609 0.6669 0.0000
vt 0.5596 0.3496 0.0000
vt 0.6662 0.3483 0.0000
vt 0.6675 0.6657 0.0000
vt 0.7729 0.3471 0.0000
vt 0.7741 0.6644 0.0000
vt 0.8795 0.3458 0.0000
vt 0.8808 0.6631 0.0000
vt 0.9861 0.3445 0.0000
vt 0.9874 0.6618 0.0000
vt 0.7754 0.9817 0.0000
vt 0.8820 0.9804 0.0000
vt 0.7716 0.0297 0.0000
vt 0.8782 0.0284 0.0000
vt 0.5709 0.6628 0.0000
vt 0.5715 0.3520 0.0000
vt 0.6760 0.3525 0.0000
vt 0.6754 0.6634 0.0000
vt 0.7804 0.3531 0.0000
vt 0.7798 0.6640 0.0000
vt 0.8849 0.3537 0.0000
vt 0.8843 0.6646 0.0000
vt 0.9893 0.3543 0.0000
vt 0.9888 0.6652 0.0000
vt 0.7792 0.9749 0.0000
vt 0.8837 0.9755 0.0000
vt 0.7810 0.0423 0.0000
vt 0.8855 0.0428 0.0000
vt 0.5581 0.6603 0.0000
vt 0.5563 0.3409 0.0000
vt 0.6636 0.3390 0.0000
vt 0.6655 0.6621 0.0000
vt 0.7706 0.3425 0.0000
vt 0.7728 0.6602 0.0000
vt 0.8801 0.3369 0.0000
vt 0.8801 0.6621 0.0000
vt 0.9855 0.3371 0.0000
vt 0.9874 0.6565 0.0000
vt 0.7746 0.9796 0.0000
vt 0.8820 0.9777 0.0000
vt 0.7668 0.0178 0.0000
vt 0.8761 0.0175 0.0000
vt 0.5451 0.6740 0.0000
vt 0.5437 0.3430 0.0000
vt 0.6550 0.3416 0.0000
vt 0.6563 0.6726 0.0000
vt 0.7662 0.3402 0.0000
vt 0.7676 0.6712 0.0000
vt 0.8774 0.3388 0.0000
vt 0.8788 0.6698 0.0000
vt 0.9886 0.3375 0.0000
vt 0.9900 0.6685 0.0000
vt 0.7689 1.0022 0.0000
vt 0.8802 1.0009 0.0000
vt 0.7648 0.0092 0.0000
vt 0.8760 0.0078 0.0000
vt 0.5607 0.6654 0.0000
vt 0.5611 0.3441 0.0000
vt 0.6691 0.3446 0.0000
vt 0.6686 0.6659 0.0000
vt 0.7771 0.3451 0.0000
vt 0.7766 0.6664 0.0000
vt 0.8850 0.3456 0.0000
vt 0.8845 0.6668 0.0000
vt 0.9930 0.3460 0.0000
vt 0.9925 0.6673 0.0000
vt 0.7761 0.9876 0.0000
vt 0.8840 0.9881 0.0000
vt 0.7775 0.0238 0.0000
vt 0.8855 0.0243 0.0000
vt 0.5573 0.6605 0.0000
vt 0.5568 0.3413 0.0000
vt 0.6641 0.3409 0.0000
vt 0.6645 0.6600 0.0000
vt 0.7713 0.3404 0.0000
vt 0.7717 0.6596 0.0000
vt 0.8785 0.3400 0.0000
vt 0.8790 0.6591 0.0000
vt 0.9858 0.3395 0.0000
vt 0.9862 0.6587 0.0000
vt 0.7722 0.9787 0.0000
vt 0.8794 0.9783 0.0000
vt 0.7708 0.0213 0.0000
vt 0.8781 0.0208 0.0000
# 126 texture coords

o Cube_120
g Cube_120
usemtl wire_204204204
s off
f 1/1/1 2/2/1 3/3/1 
f 3/3/1 4/4/1 1/1/1 
f 5/5/2 1/1/2 4/4/2 
f 4/4/2 6/6/2 5/5/2 
f 7/7/3 5/5/3 6/6/3 
f 6/6/3 8/8/3 7/7/3 
f 2/9/4 7/7/4 8/8/4 
f 8/8/4 3/10/4 2/9/4 
f 8/8/5 6/6/5 4/11/5 
f 4/11/5 3/12/5 8/8/5 
f 2/13/6 1/14/6 5/5/6 
f 5/5/6 7/7/6 2/13/6 
f 9/15/1 10/16/1 11/17/1 
f 11/17/1 12/18/1 9/15/1 
f 13/19/7 9/15/7 12/18/7 
f 12/18/7 14/20/7 13/19/7 
f 15/21/3 13/19/3 14/20/3 
f 14/20/3 16/22/3 15/21/3 
f 10/23/8 15/21/8 16/22/8 
f 16/22/8 11/24/8 10/23/8 
f 16/22/9 14/20/9 12/25/9 
f 12/25/9 11/26/9 16/22/9 
f 10/27/10 9/28/10 13/19/10 
f 13/19/10 15/21/10 10/27/10 
usemtl 02___Default
f 17/15/1 18/16/1 19/17/1 
f 19/17/1 20/18/1 17/15/1 
f 21/19/7 17/15/7 20/18/7 
f 20/18/7 22/20/7 21/19/7 
f 23/21/3 21/19/3 22/20/3 
f 22/20/3 24/22/3 23/21/3 
f 18/23/8 23/21/8 24/22/8 
f 24/22/8 19/24/8 18/23/8 
f 24/22/9 22/20/9 20/25/9 
f 20/25/9 19/26/9 24/22/9 
f 18/27/10 17/28/10 21/19/10 
f 21/19/10 23/21/10 18/27/10 
f 25/17/1 26/16/1 27/15/1 
f 27/15/1 28/18/1 25/17/1 
f 28/18/7 27/15/7 29/19/7 
f 29/19/7 30/20/7 28/18/7 
f 30/20/3 29/19/3 31/21/3 
f 31/21/3 32/22/3 30/20/3 
f 32/22/8 31/21/8 26/23/8 
f 26/23/8 25/24/8 32/22/8 
f 28/25/10 30/20/10 32/22/10 
f 32/22/10 25/26/10 28/25/10 
f 29/19/9 27/28/9 26/27/9 
f 26/27/9 31/21/9 29/19/9 
usemtl wire_204204204
f 33/29/3 34/30/3 35/31/3 
f 35/31/3 36/32/3 33/29/3 
f 36/32/11 35/31/11 37/33/11 
f 37/33/11 38/34/11 36/32/11 
f 38/34/1 37/33/1 39/35/1 
f 39/35/1 40/36/1 38/34/1 
f 40/36/12 39/35/12 34/37/12 
f 34/37/12 33/38/12 40/36/12 
f 36/39/13 38/34/13 40/36/13 
f 40/36/13 33/40/13 36/39/13 
f 37/33/14 35/41/14 34/42/14 
f 34/42/14 39/35/14 37/33/14 
f 41/43/3 42/44/3 43/45/3 
f 43/45/3 44/46/3 41/43/3 
f 44/46/11 43/45/11 45/47/11 
f 45/47/11 46/48/11 44/46/11 
f 46/48/1 45/47/1 47/49/1 
f 47/49/1 48/50/1 46/48/1 
f 48/50/12 47/49/12 42/51/12 
f 42/51/12 41/52/12 48/50/12 
f 44/53/13 46/48/13 48/50/13 
f 48/50/13 41/54/13 44/53/13 
f 45/47/14 43/55/14 42/56/14 
f 42/56/14 47/49/14 45/47/14 
f 49/57/3 50/58/3 51/59/3 
f 51/59/3 52/60/3 49/57/3 
f 52/60/11 51/59/11 53/61/11 
f 53/61/11 54/62/11 52/60/11 
f 54/62/1 53/61/1 55/63/1 
f 55/63/1 56/64/1 54/62/1 
f 56/64/12 55/63/12 50/65/12 
f 50/65/12 49/66/12 56/64/12 
f 52/67/13 54/62/13 56/64/13 
f 56/64/13 49/68/13 52/67/13 
f 53/61/14 51/69/14 50/70/14 
f 50/70/14 55/63/14 53/61/14 
f 57/15/1 58/16/1 59/17/1 
f 59/17/1 60/18/1 57/15/1 
f 61/19/2 57/15/2 60/18/2 
f 60/18/2 62/20/2 61/19/2 
f 63/21/3 61/19/3 62/20/3 
f 62/20/3 64/22/3 63/21/3 
f 58/23/4 63/21/4 64/22/4 
f 64/22/4 59/24/4 58/23/4 
f 64/22/5 62/20/5 60/25/5 
f 60/25/5 59/26/5 64/22/5 
f 58/27/6 57/28/6 61/19/6 
f 61/19/6 63/21/6 58/27/6 
f 65/71/3 66/72/3 67/73/3 
f 67/73/3 68/74/3 65/71/3 
f 68/74/11 67/73/11 69/75/11 
f 69/75/11 70/76/11 68/74/11 
f 70/76/1 69/75/1 71/77/1 
f 71/77/1 72/78/1 70/76/1 
f 72/78/12 71/77/12 66/79/12 
f 66/79/12 65/80/12 72/78/12 
f 68/81/13 70/76/13 72/78/13 
f 72/78/13 65/82/13 68/81/13 
f 69/75/14 67/83/14 66/84/14 
f 66/84/14 71/77/14 69/75/14 
f 73/85/3 74/86/3 75/87/3 
f 75/87/3 76/88/3 73/85/3 
f 76/88/11 75/87/11 77/89/11 
f 77/89/11 78/90/11 76/88/11 
f 78/90/1 77/89/1 79/91/1 
f 79/91/1 80/92/1 78/90/1 
f 80/92/12 79/91/12 74/93/12 
f 74/93/12 73/94/12 80/92/12 
f 76/95/13 78/90/13 80/92/13 
f 80/92/13 73/96/13 76/95/13 
f 77/89/14 75/97/14 74/98/14 
f 74/98/14 79/91/14 77/89/14 
f 81/99/3 82/100/3 83/101/3 
f 83/101/3 84/102/3 81/99/3 
f 84/102/15 83/101/15 85/103/15 
f 85/103/15 86/104/15 84/102/15 
f 86/104/1 85/103/1 87/105/1 
f 87/105/1 88/106/1 86/104/1 
f 88/106/16 87/105/16 82/107/16 
f 82/107/16 81/108/16 88/106/16 
f 84/109/17 86/104/17 88/106/17 
f 88/106/17 81/110/17 84/109/17 
f 85/103/18 83/111/18 82/112/18 
f 82/112/18 87/105/18 85/103/18 
f 89/113/3 90/114/3 91/115/3 
f 91/115/3 92/116/3 89/113/3 
f 92/116/15 91/115/15 93/117/15 
f 93/117/15 94/118/15 92/116/15 
f 94/118/1 93/117/1 95/119/1 
f 95/119/1 96/120/1 94/118/1 
f 96/120/16 95/119/16 90/121/16 
f 90/121/16 89/122/16 96/120/16 
f 92/123/17 94/118/17 96/120/17 
f 96/120/17 89/124/17 92/123/17 
f 93/117/18 91/125/18 90/126/18 
f 90/126/18 95/119/18 93/117/18 
# 144 faces

